<svg width="35" height="29" viewBox="0 0 35 29" fill="none" xmlns="http://www.w3.org/2000/svg">
<path d="M34.999 3.64781C33.6974 4.21875 32.3106 4.59719 30.8646 4.78094C32.3521 3.89281 33.4874 2.49719 34.0212 0.815C32.6343 1.64187 31.1031 2.22594 29.4712 2.55188C28.1543 1.14969 26.2774 0.28125 24.2299 0.28125C20.2574 0.28125 17.0593 3.50563 17.0593 7.45844C17.0593 8.02719 17.1075 8.57406 17.2256 9.09469C11.2603 8.80375 5.98183 5.94469 2.4359 1.58938C1.81683 2.66344 1.45371 3.89281 1.45371 5.21625C1.45371 7.70125 2.7334 9.90406 4.6409 11.1794C3.48808 11.1575 2.35715 10.8228 1.39902 10.2956C1.39902 10.3175 1.39902 10.3459 1.39902 10.3744C1.39902 13.8612 3.88621 16.7575 7.14777 17.4247C6.56371 17.5844 5.92714 17.6609 5.26652 17.6609C4.80715 17.6609 4.3434 17.6347 3.90808 17.5384C4.83777 20.38 7.47589 22.4691 10.6128 22.5369C8.17152 24.4466 5.07183 25.5972 1.71621 25.5972C1.12777 25.5972 0.563398 25.5709 -0.000976562 25.4987C3.17746 27.5484 6.94433 28.7188 11.0065 28.7188C24.2103 28.7188 31.429 17.7812 31.429 8.30062C31.429 7.98344 31.4181 7.67719 31.4028 7.37313C32.8268 6.3625 34.0234 5.10031 34.999 3.64781Z" fill="#03A9F4"/>
</svg>
