<svg width="24" height="26" viewBox="0 0 24 26" fill="none" xmlns="http://www.w3.org/2000/svg">
<path d="M0.751284 25.7265C0.895891 25.8998 1.11012 26 1.33586 26H22.664C22.8897 26 23.104 25.8998 23.2488 25.7265C23.3934 25.5531 23.4539 25.3246 23.4136 25.1024L20.3667 8.29381C20.3009 7.9314 19.9855 7.66797 19.6171 7.66797H17.332V5.33203C17.332 2.39188 14.9401 0 11.9999 0C9.05977 0 6.66789 2.39188 6.66789 5.33203V7.66797H4.38274C4.01457 7.66797 3.69898 7.9314 3.63332 8.29381L0.586443 25.1024C0.546175 25.3246 0.606478 25.5531 0.751284 25.7265ZM8.19133 5.33203C8.19133 3.23195 9.89984 1.52344 11.9999 1.52344C14.1 1.52344 15.8085 3.23195 15.8085 5.33203V7.66797H8.19133V5.33203ZM5.01889 9.19141H6.66789V10.7148H5.90618C5.48545 10.7148 5.14446 11.0558 5.14446 11.4766C5.14446 11.8973 5.48545 12.2383 5.90618 12.2383H8.95305C9.37378 12.2383 9.71477 11.8973 9.71477 11.4766C9.71477 11.0558 9.37378 10.7148 8.95305 10.7148H8.19133V9.19141H15.8085V10.7148H15.0468C14.6261 10.7148 14.2851 11.0558 14.2851 11.4766C14.2851 11.8973 14.6261 12.2383 15.0468 12.2383H18.0937C18.5144 12.2383 18.8554 11.8973 18.8554 11.4766C18.8554 11.0558 18.5144 10.7148 18.0937 10.7148H17.332V9.19141H18.9812L21.7519 24.4766H2.24814L5.01889 9.19141Z" fill="black"/>
</svg>
